<svg xmlns="http://www.w3.org/2000/svg" width="133.362" height="95.825" viewBox="0 0 133.362 95.825">
  <g id="Group_5" data-name="Group 5" transform="translate(-132.779 -313.175)">
    <g id="Group_1" data-name="Group 1" transform="translate(178.216 336.711)">
      <path id="Path_1" data-name="Path 1" d="M252.945,373.476c.083.042.088.156.016.343s-.162.271-.265.249a19.859,19.859,0,0,0-2.074-.2,20.442,20.442,0,0,0-2.106.016q-.032.718-.062,1.4t-.063,1.4c-.021.229-.041.447-.062.655a6.492,6.492,0,0,0-.031.654q-.085,1.841-.155,3.65t-.126,3.68q-.032.905-.016,1.794t.016,1.794a.585.585,0,0,1-.5.172,1.2,1.2,0,0,1-.5-.234q-.063-3.774.109-7.471t.39-7.439q-.187.032-.39.047c-.136.01-.265.026-.39.047a2.367,2.367,0,0,1-.546,0,4.394,4.394,0,0,0-.515-.031q-.562.063-1.138.078t-1.138.078a.747.747,0,0,1-.437-.062.7.7,0,0,1-.281-.234.309.309,0,0,1-.047-.28c.031-.094.13-.161.3-.2a3.23,3.23,0,0,1,.468-.124q.187-.03.374-.047t.39-.016h.484q.749-.062,1.482-.078t1.451-.047q.062-.655.078-1.326t.078-1.325a1.277,1.277,0,0,1,.768.062q.168.125.168.686l-.093,1.871h.53q.686-.031,1.373,0t1.372.093a2.73,2.73,0,0,1,.562.125A4.121,4.121,0,0,1,252.945,373.476Z" transform="translate(-242.62 -370.263)" fill="#cb683b"/>
      <path id="Path_2" data-name="Path 2" d="M275.547,389.255c-.479.083-.78.073-.9-.031s-.187-.364-.187-.78V384.2q0-2.089-.063-4.211a4.347,4.347,0,0,0-.345-1.653q-.346-.717-.848-.749a1.181,1.181,0,0,0-.973.593,1.346,1.346,0,0,0-.2.359c-.053.135-.1.265-.141.39q-.315.719-.613,1.435t-.581,1.435a14.118,14.118,0,0,0-.817,3.431,32.784,32.784,0,0,0-.188,3.524,5.913,5.913,0,0,1-.047.749c-.031.249-.057.5-.078.748-.423.083-.7.078-.817-.016s-.181-.328-.181-.7q-.031-1.528-.062-3.041t-.031-3.01a14.147,14.147,0,0,1,.015-1.482q.048-.733.078-1.451.062-2.246.078-4.507t.078-4.508c.021-.228.047-.468.078-.717s.067-.5.109-.749a1.875,1.875,0,0,1,.753.405,1.176,1.176,0,0,1,.12.749q-.031,1.528-.078,3.057t-.078,3.057q-.031.905-.016,1.825t.016,1.825a.235.235,0,0,0,.094.031.252.252,0,0,1,.094.031,6.085,6.085,0,0,0,.266-.608q.11-.3.236-.608.189-.436.345-.874a5.472,5.472,0,0,1,.409-.873q.691-1.247,1.429-1.279a3.2,3.2,0,0,1,1.744.593,2.766,2.766,0,0,1,.858.874,2.327,2.327,0,0,1,.328,1.248q.062,1.186.094,2.355t.031,2.355q.03,1.092.031,2.168v2.5A2.241,2.241,0,0,1,275.547,389.255Z" transform="translate(-257.767 -370.071)" fill="#cb683b"/>
      <path id="Path_3" data-name="Path 3" d="M289.976,391.879q.156-.841.327-1.981t.39-2.355a2.281,2.281,0,0,1,.437-1.045,5.294,5.294,0,0,1,.779-.827,1.041,1.041,0,0,1,.655-.218,1.782,1.782,0,0,1,1.061.452,1.979,1.979,0,0,1,.655.952,3.339,3.339,0,0,1-.624,3.15,7.715,7.715,0,0,1-.951,1.123,3.26,3.26,0,0,1-1.263.748.391.391,0,0,0-.281.219,1.613,1.613,0,0,0-.094.343,7.793,7.793,0,0,0,.063,1.715,4.7,4.7,0,0,0,.561,1.622,1.612,1.612,0,0,0,.5.561,1.473,1.473,0,0,0,.655.266,1.1,1.1,0,0,0,.671-.125,1.487,1.487,0,0,0,.577-.608q.187-.343.359-.7t.328-.7a2.856,2.856,0,0,1,.14-.249c.052-.083.109-.167.172-.25a1.1,1.1,0,0,1,.187-.141c.083-.051.145-.067.187-.046a1.118,1.118,0,0,1,.2.187.361.361,0,0,1,.109.218q-.063.406-.141.811a2.557,2.557,0,0,1-.265.749,5.006,5.006,0,0,1-.779,1.139,1.477,1.477,0,0,1-1.279.452,4.488,4.488,0,0,1-1.607-.39,2.468,2.468,0,0,1-1.138-1.2,5.4,5.4,0,0,1-.468-1.716Q290.007,393.128,289.976,391.879Zm1.31-.935a2.57,2.57,0,0,1,.327-.141.6.6,0,0,0,.234-.14q.28-.343.561-.655a7.982,7.982,0,0,0,.531-.655,2.415,2.415,0,0,0,.515-1.2,2.945,2.945,0,0,0-.14-1.294,1.278,1.278,0,0,0-.187-.312.5.5,0,0,0-.249-.187.37.37,0,0,0-.3.094.961.961,0,0,0-.265.281,4.821,4.821,0,0,0-.78,2Q291.379,389.79,291.286,390.944Z" transform="translate(-270.387 -379.091)" fill="#cb683b"/>
    </g>
    <g id="Group_2" data-name="Group 2" transform="translate(132.779 313.175)">
      <path id="Path_4" data-name="Path 4" d="M171.44,327.482q-.478-2.045-1.333-4.616a14.985,14.985,0,0,0-2.474-4.473,14.734,14.734,0,0,0-4-3.569,11.427,11.427,0,0,0-4.949-1.618,9.394,9.394,0,0,0-5.425,1.285,26.313,26.313,0,0,0-3.759,2.665,10.836,10.836,0,0,0-2.712,3.616q-2.19,4.568-4.14,9.279t-3.569,9.565q-.477,1.62-1,3.236a24.141,24.141,0,0,0-.809,3.236q-.856,4.283-1.522,8.565t-1.428,8.565a83.932,83.932,0,0,0-1.523,13.752,55.972,55.972,0,0,0,1.332,13.752,24.333,24.333,0,0,0,1.38,4.331q.9,2.141,1.666,4.33a10.9,10.9,0,0,0,.713,1.522q.429.763.809,1.618a10.807,10.807,0,0,0,3.569,4.616A8.044,8.044,0,0,0,147.552,409a16.459,16.459,0,0,0,6.091-1.285,10.7,10.7,0,0,0,4.663-4.045,45.686,45.686,0,0,0,3.379-5.757,28.893,28.893,0,0,0,2.236-6.329q.95-3.616,1.666-7.376t1.475-7.471q1.046-5.329,2-10.517t1.713-10.611q.571-3.712.809-7.471t.618-7.566q.189-2.855.19-5a34.031,34.031,0,0,0-.238-4.092A38.167,38.167,0,0,0,171.44,327.482Zm-2.475,16.607q-.192,4.094-.666,8.184-.477,4.19-1.284,8.232t-1.571,8.232q-.952,5.139-1.9,10.231T161.447,389.2a34.478,34.478,0,0,1-2.189,6.614,45.908,45.908,0,0,1-3.331,6.139,10.1,10.1,0,0,1-7.8,4.758,6.705,6.705,0,0,1-3.664-.666,5.092,5.092,0,0,1-2.522-2.57q-1.334-2.855-2.522-5.71t-2.142-5.806a29,29,0,0,1-1.237-6.947q-.192-3.52-.19-7.138a77.319,77.319,0,0,1,1.475-14.085q1.379-6.946,2.427-13.99a55.8,55.8,0,0,1,3.521-12.563q2.475-6,5.044-11.991a9.3,9.3,0,0,1,.476-1,9.322,9.322,0,0,0,.476-1q.761-1.332,1.523-2.522a4.462,4.462,0,0,1,2.379-1.761,5.109,5.109,0,0,0,1.618-.9,15.237,15.237,0,0,1,1.523-1.094,6.1,6.1,0,0,1,3.236-1.238,4.642,4.642,0,0,1,3.616,1.333,11.186,11.186,0,0,1,2.094,2.331,14.739,14.739,0,0,1,1.428,2.712,20.479,20.479,0,0,1,1.142,3.141q.475,1.713.856,3.569t.571,3.712a33.462,33.462,0,0,1,.19,3.378Q169.156,340,168.966,344.09Z" transform="translate(-132.779 -313.175)" fill="#47494b"/>
      <path id="Path_5" data-name="Path 5" d="M267.358,427.94a6.874,6.874,0,0,1-.19.762.872.872,0,0,0,0,.571,44.274,44.274,0,0,1-.476,9.612q-.763,4.76-1.523,9.612a46.949,46.949,0,0,1-1.38,6.329,23.339,23.339,0,0,1-2.712,5.948,11.907,11.907,0,0,1-1.094,1.476,2.785,2.785,0,0,1-1.666.9,17.4,17.4,0,0,1-1.332-2.379,9.162,9.162,0,0,1-.762-2.569q-.381-3.045-.666-6.091t-.381-6.091q-.192-3.234-.143-6.424t.143-6.519q0-1.713-.524-2.141a4.3,4.3,0,0,0-2.617-.238,31.328,31.328,0,0,0-.286,4.235v4.283q0,2.141-.19,4.235a19.729,19.729,0,0,1-.856,4.188q-.571,2.095-1.047,4.235t-1,4.283a44.169,44.169,0,0,1-1.285,4.283,24.45,24.45,0,0,1-2,4.235q-.285-.761-.476-1.237a5.205,5.205,0,0,1-.285-.952q-.286-1.428-.524-2.855t-.428-2.855q-.763-6.281-1.475-12.61a89.239,89.239,0,0,1-.523-12.705q0-1.713-.524-2.094a4.443,4.443,0,0,0-2.522-.19q-.1.478-.142.952a9.3,9.3,0,0,0-.048.952q.19,6.852.714,13.562t1.38,13.562q.19,1.427.476,2.807a20.133,20.133,0,0,0,.761,2.713,5.948,5.948,0,0,0,2.475,2.95,2.739,2.739,0,0,0,2.427.476,3.539,3.539,0,0,0,1.856-1.713,36.624,36.624,0,0,0,1.856-3.9,25.883,25.883,0,0,0,1.285-4.187,2.61,2.61,0,0,1,.333-.761c.157-.253.333-.571.523-.952q.19.856.333,1.57t.333,1.38q.379,1.238.761,2.427a12.719,12.719,0,0,0,.952,2.237A4.43,4.43,0,0,0,256.7,465.1a4.313,4.313,0,0,0,2.427.523,5.555,5.555,0,0,0,2.475-.809,6.3,6.3,0,0,0,2.046-2.046,16.33,16.33,0,0,0,1.713-3.188q.664-1.664,1.332-3.283a47.143,47.143,0,0,0,2.046-8.471q.618-4.282,1.094-8.66.285-2.475.381-5t.285-5.092a15.58,15.58,0,0,0-1.618-.618C268.372,428.306,267.865,428.13,267.358,427.94Z" transform="translate(-194.724 -380.466)" fill="#47494b"/>
      <path id="Path_6" data-name="Path 6" d="M328.131,399.394q-1.048-.094-1.237.523a8.183,8.183,0,0,0-.286,1.285v.476q-.382,7.044-.714,13.99t-.714,13.895q-.192,3.332-.381,6.614t-.381,6.614q-.191,2.761-.333,5.472a21.349,21.349,0,0,0,.428,5.472,3.57,3.57,0,0,0,.856,1.951,4.372,4.372,0,0,0,2.379.143,8.053,8.053,0,0,0,.19-1.428q-.1-1.334-.238-2.617a23.664,23.664,0,0,1-.143-2.617q.094-3.141.19-6.329t.286-6.329q.189-5.329.428-10.564t.523-10.564a12.169,12.169,0,0,1,.1-1.523q.094-.76.19-1.523.189-2.759.381-5.424t.381-5.425A1.82,1.82,0,0,0,328.131,399.394Z" transform="translate(-244.933 -363.721)" fill="#47494b"/>
      <path id="Path_7" data-name="Path 7" d="M368.6,462.553q-.192-.094-.571.143a3.266,3.266,0,0,0-.571.429c-.19.254-.366.508-.524.761s-.3.508-.428.761q-.477,1.049-1,2.142t-1.094,2.142a4.536,4.536,0,0,1-1.761,1.855,3.34,3.34,0,0,1-2.046.381,4.5,4.5,0,0,1-2-.809,4.928,4.928,0,0,1-1.522-1.713,14.319,14.319,0,0,1-1.713-4.949,23.87,23.87,0,0,1-.19-5.235,4.946,4.946,0,0,1,.285-1.047,1.2,1.2,0,0,1,.857-.666,9.961,9.961,0,0,0,3.854-2.284,23.614,23.614,0,0,0,2.9-3.426,10.19,10.19,0,0,0,1.9-9.612,6.037,6.037,0,0,0-2-2.9,5.437,5.437,0,0,0-3.236-1.38,3.164,3.164,0,0,0-2,.666,16.215,16.215,0,0,0-2.379,2.522,6.988,6.988,0,0,0-1.332,3.188q-.667,3.712-1.19,7.185t-1,6.044q.094,3.808.381,6.567a16.453,16.453,0,0,0,1.428,5.234,7.542,7.542,0,0,0,3.474,3.664,13.735,13.735,0,0,0,4.9,1.19,4.5,4.5,0,0,0,3.9-1.38,15.318,15.318,0,0,0,2.379-3.474,7.814,7.814,0,0,0,.809-2.284q.237-1.236.429-2.474a1.094,1.094,0,0,0-.333-.666A3.392,3.392,0,0,0,368.6,462.553ZM356.6,447.136a14.734,14.734,0,0,1,2.379-6.091,2.942,2.942,0,0,1,.809-.856,1.129,1.129,0,0,1,.9-.286,1.517,1.517,0,0,1,.762.571,3.889,3.889,0,0,1,.571.952,8.973,8.973,0,0,1,.428,3.95,7.366,7.366,0,0,1-1.57,3.664,24.469,24.469,0,0,1-1.618,2q-.856.952-1.713,2a1.788,1.788,0,0,1-.714.428,7.849,7.849,0,0,0-1,.429Q356.129,450.374,356.6,447.136Z" transform="translate(-261.226 -385.862)" fill="#47494b"/>
      <path id="Path_8" data-name="Path 8" d="M397.4,411.951a12.559,12.559,0,0,0-1.618-.666,8.33,8.33,0,0,0-1.713-.38q-2.095-.19-4.188-.286t-4.187,0h-1.618v-.027h-.046l-.085-.007c-.05,0-.1.007-.152.007h-.29a2.118,2.118,0,0,1-.212.026c-.267.007-.532,0-.8-.009-.487.043-.974.078-1.463.1v.008q-2.19.1-4.425.143t-4.52.238h-1.475c-.334,0-.655.013-.968.034-.243,0-11.153.116-12.119.361l-.539.689.012.316.028.774.295.342.29.236.429.161.5.228,1.864-.068,3.839-.04,2.7-.1.356-.009,4.448-.212q1.762-.047,3.474-.238a13.54,13.54,0,0,1,1.57.1,7.287,7.287,0,0,0,1.665,0c.381-.063.776-.11,1.19-.143s.809-.079,1.19-.143q-.667,11.42-1.19,22.7t-.333,22.794a3.681,3.681,0,0,0,1.523.714,1.785,1.785,0,0,0,1.523-.523q0-2.759-.048-5.473t.048-5.472q.17-5.71.385-11.23t.472-11.135q0-1.046.1-2t.19-2q.094-2.188.19-4.282t.191-4.283a62.257,62.257,0,0,1,6.424-.048,60.167,60.167,0,0,1,6.328.619q.475.1.81-.762C397.666,412.427,397.65,412.08,397.4,411.951Z" transform="translate(-264.237 -370.283)" fill="#47494b"/>
      <line id="Line_1" data-name="Line 1" y1="0.003" x2="0.197" transform="translate(105.039 43.67)" fill="#47494b"/>
      <path id="Path_9" data-name="Path 9" d="M384.26,418.842" transform="translate(-280.232 -375.132)" fill="#47494b"/>
    </g>
    <g id="Group_4" data-name="Group 4" transform="translate(222.133 318.224)">
      <path id="Path_10" data-name="Path 10" d="M386.017,368.755l1.5,17.782h19.8l-2.37-16.1Z" transform="translate(-370.616 -350.812)" fill="#47494b" stroke="#313133" stroke-miterlimit="10" stroke-width="1"/>
      <path id="Path_11" data-name="Path 11" d="M366,392.9s-2.423,7.792,2.9,7.792c2.439,0,3.762.075,7.209,0,1.007-.022,1.847-.013,2.436,0q.47-3.9.939-7.792Z" transform="translate(-358.556 -364.972)" fill="#cb683b" stroke="#313133" stroke-miterlimit="10" stroke-width="1"/>
      <g id="Group_3" data-name="Group 3" transform="translate(2.76 2.972)">
        <line id="Line_2" data-name="Line 2" y1="3.71" x2="3.71" transform="translate(15.374 14.971)" fill="#cb683b" stroke="#313133" stroke-miterlimit="10" stroke-width="1"/>
        <path id="Path_12" data-name="Path 12" d="M384.7,336.934c-7.905-7.905-15.09-3.957-21.957,2.91s-10.815,14.051-2.91,21.957" transform="translate(-355.458 -332.564)" fill="#cb683b" stroke="#313133" stroke-miterlimit="10" stroke-width="1"/>
        <line id="Line_3" data-name="Line 3" x1="3.71" y2="3.71" transform="translate(15.374 14.971)" fill="#cb683b" stroke="#313133" stroke-miterlimit="10" stroke-width="1"/>
      </g>
      <path id="Path_13" data-name="Path 13" d="M380.74,369.911,393.7,356.947l.179,13.143Z" transform="translate(-367.522 -343.889)" fill="#fda954" stroke="#313133" stroke-miterlimit="10" stroke-width="1"/>
      <circle id="Ellipse_1" data-name="Ellipse 1" cx="9.116" cy="9.116" r="9.116" transform="translate(3.139 16.016)" fill="#fff" stroke="#313133" stroke-miterlimit="10" stroke-width="1"/>
      <circle id="Ellipse_2" data-name="Ellipse 2" cx="9.116" cy="9.116" r="9.116" transform="translate(16.103 3.052)" fill="#fff" stroke="#313133" stroke-miterlimit="10" stroke-width="1"/>
      <path id="Path_14" data-name="Path 14" d="M352.661,369.961s-3.1,3.782-3.782,3.782,2.65,2.005,2.65,2.005Z" transform="translate(-348.786 -351.519)" fill="#47494b" stroke="#313133" stroke-miterlimit="10" stroke-width="1"/>
      <path id="Path_15" data-name="Path 15" d="M393.367,329.254s3.782-3.1,3.782-3.783,2.005,2.651,2.005,2.651Z" transform="translate(-374.926 -325.38)" fill="#47494b" stroke="#313133" stroke-miterlimit="10" stroke-width="1"/>
      <path id="Path_16" data-name="Path 16" d="M421.864,360.328s14.114,21.268,2.37,21.268c-5.326,0-5.733-1.478-5.733-1.478l-3.638-13.212Z" transform="translate(-387.53 -345.871)" fill="#cb683b" stroke="#313133" stroke-miterlimit="10" stroke-width="1"/>
      <path id="Path_17" data-name="Path 17" d="M381.778,380.245l-2.8,2.8-2.8,2.8,2.8-2.8Z" transform="translate(-364.847 -357.549)" fill="#1a1818" stroke="#313133" stroke-miterlimit="10" stroke-width="1"/>
      <path id="Path_18" data-name="Path 18" d="M413.118,348.9l-2.8,2.8-2.8,2.8,2.8-2.8Z" transform="translate(-383.223 -339.173)" fill="#1a1818" stroke="#313133" stroke-miterlimit="10" stroke-width="1"/>
    </g>
    <path id="Path_19" data-name="Path 19" d="M390.646,410.536c-1.224.81-1.212,3.278-.135,3.943a1.3,1.3,0,0,0,.616.184.649.649,0,0,0,.679-.73c-.253-2.019.129-2.773.567-3.069.25-.169.266-.3.255-.4C392.608,410.248,391.528,409.954,390.646,410.536Z" transform="translate(-150.651 -56.887)" fill="#fda954" stroke="#313133" stroke-miterlimit="10" stroke-width="1"/>
    <path id="Path_20" data-name="Path 20" d="M422.774,410.027c-1.224.81-1.212,3.278-.134,3.943a1.3,1.3,0,0,0,.616.184.648.648,0,0,0,.679-.73c-.253-2.019.129-2.773.567-3.069.25-.169.266-.3.255-.4C424.735,409.739,423.655,409.444,422.774,410.027Z" transform="translate(-169.489 -56.588)" fill="#fda954" stroke="#313133" stroke-miterlimit="10" stroke-width="1"/>
  </g>
</svg>
