<svg xmlns="http://www.w3.org/2000/svg" width="101" height="72.571" viewBox="0 0 101 72.571">
  <g id="Group_5" data-name="Group 5" transform="translate(-132.779 -313.175)">
    <g id="Group_1" data-name="Group 1" transform="translate(167.19 331)">
      <path id="Path_1" data-name="Path 1" d="M250.44,372.729c.063.032.067.118.012.26s-.123.2-.2.189a14.993,14.993,0,0,0-1.571-.154,15.44,15.44,0,0,0-1.595.012q-.024.544-.047,1.063t-.048,1.063c-.016.173-.031.339-.047.5a4.91,4.91,0,0,0-.023.5q-.064,1.394-.117,2.764t-.1,2.787q-.024.686-.012,1.358t.012,1.358a.442.442,0,0,1-.378.13.909.909,0,0,1-.378-.177q-.048-2.858.083-5.658t.3-5.634q-.142.024-.3.035c-.1.008-.2.02-.3.035a1.784,1.784,0,0,1-.414,0,3.335,3.335,0,0,0-.39-.024q-.425.048-.862.059t-.862.059a.566.566,0,0,1-.331-.047.535.535,0,0,1-.213-.177.234.234,0,0,1-.035-.212c.023-.071.1-.122.224-.154a2.452,2.452,0,0,1,.355-.094q.141-.023.283-.035t.3-.012h.366q.567-.047,1.122-.059t1.1-.036q.047-.5.059-1t.059-1a.967.967,0,0,1,.581.047q.127.095.127.52l-.071,1.417h.4q.519-.023,1.039,0t1.039.071a2.073,2.073,0,0,1,.425.095A3.126,3.126,0,0,1,250.44,372.729Z" transform="translate(-242.62 -370.295)" fill="#cb683b"/>
      <path id="Path_2" data-name="Path 2" d="M273.826,384.6c-.363.063-.591.055-.685-.023s-.142-.276-.142-.591v-3.213q0-1.582-.047-3.189a3.292,3.292,0,0,0-.261-1.252q-.262-.543-.642-.567a.894.894,0,0,0-.737.449,1.02,1.02,0,0,0-.155.272c-.04.1-.075.2-.107.3q-.238.544-.464,1.087t-.44,1.087a10.7,10.7,0,0,0-.618,2.6,24.839,24.839,0,0,0-.143,2.669,4.47,4.47,0,0,1-.036.567c-.023.189-.043.378-.059.567-.321.063-.527.059-.619-.012s-.137-.248-.137-.531q-.024-1.157-.047-2.3t-.024-2.28a10.709,10.709,0,0,1,.012-1.122q.036-.555.059-1.1.047-1.7.059-3.413t.059-3.414c.016-.173.035-.355.059-.543s.051-.378.083-.567a1.419,1.419,0,0,1,.57.307.889.889,0,0,1,.091.567q-.024,1.157-.059,2.315t-.059,2.315q-.024.686-.012,1.382t.012,1.382a.178.178,0,0,0,.071.024.19.19,0,0,1,.071.023,4.6,4.6,0,0,0,.2-.461q.083-.224.179-.461.143-.331.262-.662a4.14,4.14,0,0,1,.31-.661q.524-.945,1.082-.969a2.428,2.428,0,0,1,1.321.449,2.094,2.094,0,0,1,.649.662,1.762,1.762,0,0,1,.248.945q.047.9.071,1.784t.024,1.784q.023.827.023,1.642v1.89A1.7,1.7,0,0,1,273.826,384.6Z" transform="translate(-260.361 -370.071)" fill="#cb683b"/>
      <path id="Path_3" data-name="Path 3" d="M289.976,390.32q.118-.637.248-1.5t.3-1.784a1.728,1.728,0,0,1,.331-.791,4.007,4.007,0,0,1,.59-.626.788.788,0,0,1,.5-.165,1.349,1.349,0,0,1,.8.342,1.5,1.5,0,0,1,.5.721,2.529,2.529,0,0,1-.472,2.386,5.844,5.844,0,0,1-.721.85,2.47,2.47,0,0,1-.957.567.3.3,0,0,0-.212.166,1.217,1.217,0,0,0-.071.26,5.9,5.9,0,0,0,.048,1.3,3.56,3.56,0,0,0,.425,1.229,1.222,1.222,0,0,0,.378.425,1.117,1.117,0,0,0,.5.2.832.832,0,0,0,.508-.095,1.127,1.127,0,0,0,.437-.461q.141-.26.272-.531t.248-.532a2.126,2.126,0,0,1,.106-.189c.039-.063.083-.126.13-.189a.842.842,0,0,1,.142-.106c.063-.039.11-.051.142-.035a.847.847,0,0,1,.154.142.273.273,0,0,1,.083.165q-.048.308-.107.614a1.936,1.936,0,0,1-.2.567,3.8,3.8,0,0,1-.59.862,1.119,1.119,0,0,1-.969.342,3.4,3.4,0,0,1-1.217-.3,1.869,1.869,0,0,1-.862-.909,4.09,4.09,0,0,1-.355-1.3Q290,391.265,289.976,390.32Zm.992-.708a1.965,1.965,0,0,1,.248-.106.451.451,0,0,0,.177-.106q.212-.26.425-.5a6.081,6.081,0,0,0,.4-.5,1.83,1.83,0,0,0,.39-.91,2.231,2.231,0,0,0-.106-.98.971.971,0,0,0-.142-.237.376.376,0,0,0-.189-.142.281.281,0,0,0-.225.071.731.731,0,0,0-.2.213,3.653,3.653,0,0,0-.591,1.512Q291.038,388.738,290.968,389.612Z" transform="translate(-275.14 -380.635)" fill="#cb683b"/>
    </g>
    <g id="Group_2" data-name="Group 2" transform="translate(132.779 313.175)">
      <path id="Path_4" data-name="Path 4" d="M162.058,324.01q-.362-1.549-1.009-3.5a11.348,11.348,0,0,0-1.874-3.388,11.159,11.159,0,0,0-3.027-2.7A8.654,8.654,0,0,0,152.4,313.2a7.115,7.115,0,0,0-4.108.973,19.925,19.925,0,0,0-2.847,2.018,8.207,8.207,0,0,0-2.054,2.739q-1.659,3.46-3.135,7.027t-2.7,7.244q-.361,1.227-.757,2.451a18.282,18.282,0,0,0-.613,2.451q-.648,3.244-1.153,6.487t-1.081,6.487A63.559,63.559,0,0,0,132.8,361.49,42.384,42.384,0,0,0,133.8,371.9a18.425,18.425,0,0,0,1.045,3.28q.684,1.621,1.262,3.279a8.259,8.259,0,0,0,.54,1.153q.325.578.613,1.226a8.183,8.183,0,0,0,2.7,3.5,6.091,6.091,0,0,0,4,1.405,12.464,12.464,0,0,0,4.613-.973,8.1,8.1,0,0,0,3.532-3.064,34.592,34.592,0,0,0,2.559-4.36,21.882,21.882,0,0,0,1.694-4.793q.72-2.738,1.262-5.586t1.117-5.658q.792-4.036,1.514-7.964t1.3-8.036q.433-2.811.613-5.658t.468-5.73q.143-2.162.144-3.784a25.785,25.785,0,0,0-.18-3.1A28.925,28.925,0,0,0,162.058,324.01Zm-1.874,12.577q-.145,3.1-.5,6.2-.361,3.173-.973,6.235t-1.19,6.235q-.721,3.892-1.441,7.748t-1.586,7.748a26.113,26.113,0,0,1-1.658,5.009,34.774,34.774,0,0,1-2.523,4.649,7.645,7.645,0,0,1-5.91,3.6,5.078,5.078,0,0,1-2.775-.5,3.856,3.856,0,0,1-1.91-1.946q-1.01-2.162-1.91-4.324t-1.622-4.4a21.966,21.966,0,0,1-.937-5.261q-.145-2.666-.144-5.406a58.559,58.559,0,0,1,1.117-10.667q1.044-5.26,1.838-10.6a42.261,42.261,0,0,1,2.667-9.514q1.874-4.54,3.82-9.081a7.04,7.04,0,0,1,.36-.757,7.048,7.048,0,0,0,.361-.757q.576-1.008,1.153-1.91a3.379,3.379,0,0,1,1.8-1.333,3.87,3.87,0,0,0,1.225-.685,11.55,11.55,0,0,1,1.154-.829,4.621,4.621,0,0,1,2.45-.937,3.515,3.515,0,0,1,2.739,1.009,8.473,8.473,0,0,1,1.586,1.766,11.162,11.162,0,0,1,1.081,2.054,15.5,15.5,0,0,1,.865,2.379q.36,1.3.649,2.7t.433,2.811a25.346,25.346,0,0,1,.144,2.559Q160.329,333.489,160.184,336.588Z" transform="translate(-132.779 -313.175)" fill="#fff"/>
      <path id="Path_5" data-name="Path 5" d="M260.337,427.94a5.208,5.208,0,0,1-.144.577.661.661,0,0,0,0,.433,33.529,33.529,0,0,1-.36,7.279q-.578,3.6-1.154,7.28a35.567,35.567,0,0,1-1.045,4.793,17.678,17.678,0,0,1-2.054,4.5,9.01,9.01,0,0,1-.829,1.117,2.109,2.109,0,0,1-1.262.684,13.159,13.159,0,0,1-1.009-1.8,6.936,6.936,0,0,1-.577-1.946q-.289-2.306-.5-4.613t-.288-4.613q-.146-2.449-.108-4.865t.108-4.937q0-1.3-.4-1.622a3.255,3.255,0,0,0-1.982-.18,23.729,23.729,0,0,0-.216,3.207v3.244q0,1.621-.144,3.207a14.943,14.943,0,0,1-.648,3.171q-.433,1.586-.793,3.207t-.757,3.243a33.462,33.462,0,0,1-.973,3.243,18.524,18.524,0,0,1-1.513,3.208q-.216-.577-.36-.937a3.94,3.94,0,0,1-.216-.721q-.216-1.081-.4-2.163t-.324-2.162q-.578-4.757-1.117-9.55a67.582,67.582,0,0,1-.4-9.622q0-1.3-.4-1.586a3.365,3.365,0,0,0-1.91-.144c-.048.241-.084.481-.108.721a7.037,7.037,0,0,0-.036.721q.144,5.189.541,10.271t1.045,10.271q.144,1.081.36,2.126a15.252,15.252,0,0,0,.576,2.054,4.5,4.5,0,0,0,1.874,2.234,2.075,2.075,0,0,0,1.838.36,2.68,2.68,0,0,0,1.405-1.3,27.75,27.75,0,0,0,1.406-2.955,19.6,19.6,0,0,0,.973-3.172,1.979,1.979,0,0,1,.252-.576c.119-.191.252-.433.4-.721q.144.648.253,1.189t.252,1.045q.287.937.576,1.838a9.635,9.635,0,0,0,.721,1.694,3.355,3.355,0,0,0,1.369,1.405,3.266,3.266,0,0,0,1.838.4,4.206,4.206,0,0,0,1.874-.612,4.768,4.768,0,0,0,1.549-1.55,12.364,12.364,0,0,0,1.3-2.414q.5-1.26,1.009-2.487A35.7,35.7,0,0,0,261.382,443q.468-3.243.829-6.559.216-1.874.289-3.784t.216-3.856a11.807,11.807,0,0,0-1.225-.468C261.105,428.217,260.721,428.084,260.337,427.94Z" transform="translate(-205.329 -391.986)" fill="#fff"/>
      <path id="Path_6" data-name="Path 6" d="M327.142,399.392q-.794-.071-.937.4a6.209,6.209,0,0,0-.217.973v.36q-.289,5.335-.54,10.6t-.541,10.523q-.145,2.524-.288,5.009t-.289,5.009q-.145,2.091-.252,4.144a16.17,16.17,0,0,0,.324,4.145,2.7,2.7,0,0,0,.648,1.478,3.311,3.311,0,0,0,1.8.108,6.1,6.1,0,0,0,.144-1.081q-.072-1.01-.18-1.982a17.912,17.912,0,0,1-.108-1.982q.071-2.379.144-4.793t.216-4.793q.143-4.036.324-8t.4-8a9.224,9.224,0,0,1,.072-1.153q.071-.576.144-1.153.143-2.089.288-4.108t.288-4.109A1.378,1.378,0,0,0,327.142,399.392Z" transform="translate(-264.134 -372.375)" fill="#fff"/>
      <path id="Path_7" data-name="Path 7" d="M364.532,456.387q-.146-.071-.433.108a2.469,2.469,0,0,0-.432.325c-.144.192-.277.385-.4.576s-.229.385-.324.576q-.361.794-.757,1.622t-.828,1.622a3.437,3.437,0,0,1-1.334,1.405,2.528,2.528,0,0,1-1.55.289,3.411,3.411,0,0,1-1.513-.613,3.732,3.732,0,0,1-1.153-1.3,10.846,10.846,0,0,1-1.3-3.748,18.075,18.075,0,0,1-.144-3.964,3.744,3.744,0,0,1,.216-.793.9.9,0,0,1,.649-.5,7.544,7.544,0,0,0,2.919-1.73,17.878,17.878,0,0,0,2.2-2.595,7.717,7.717,0,0,0,1.441-7.28,4.573,4.573,0,0,0-1.513-2.2,4.117,4.117,0,0,0-2.451-1.045,2.4,2.4,0,0,0-1.513.5,12.283,12.283,0,0,0-1.8,1.91,5.293,5.293,0,0,0-1.009,2.415q-.505,2.811-.9,5.442t-.757,4.577q.072,2.884.288,4.973a12.459,12.459,0,0,0,1.081,3.964,5.711,5.711,0,0,0,2.631,2.775,10.4,10.4,0,0,0,3.712.9,3.411,3.411,0,0,0,2.955-1.045,11.6,11.6,0,0,0,1.8-2.631,5.919,5.919,0,0,0,.612-1.73q.179-.936.325-1.874a.828.828,0,0,0-.252-.5A2.568,2.568,0,0,0,364.532,456.387Zm-9.082-11.676a11.16,11.16,0,0,1,1.8-4.613,2.23,2.23,0,0,1,.613-.649.856.856,0,0,1,.685-.216,1.15,1.15,0,0,1,.577.432,2.953,2.953,0,0,1,.432.721,6.8,6.8,0,0,1,.324,2.991,5.579,5.579,0,0,1-1.189,2.775,18.526,18.526,0,0,1-1.225,1.514q-.648.721-1.3,1.513a1.355,1.355,0,0,1-.54.324,5.932,5.932,0,0,0-.757.324Q355.089,447.163,355.45,444.711Z" transform="translate(-283.216 -398.306)" fill="#fff"/>
      <path id="Path_8" data-name="Path 8" d="M387.589,411.617a9.518,9.518,0,0,0-1.225-.5,6.314,6.314,0,0,0-1.3-.288q-1.586-.144-3.172-.217t-3.171,0H377.5v-.02h-.035l-.065-.006c-.038,0-.076.006-.115.006h-.219a1.608,1.608,0,0,1-.161.02c-.2.006-.4,0-.6-.007-.369.033-.738.059-1.108.074v.006q-1.659.072-3.352.108t-3.423.18H367.3c-.253,0-.5.01-.733.026-.184,0-8.446.088-9.178.273l-.408.522.009.24.021.586.223.259.22.179.325.122.38.173,1.412-.052,2.907-.03,2.048-.075.27-.007,3.369-.161q1.334-.035,2.631-.18a10.244,10.244,0,0,1,1.189.072,5.522,5.522,0,0,0,1.261,0c.288-.048.588-.083.9-.108s.612-.06.9-.108q-.505,8.649-.9,17.19t-.252,17.262a2.788,2.788,0,0,0,1.153.54,1.351,1.351,0,0,0,1.153-.4q0-2.09-.036-4.145t.036-4.144q.129-4.324.292-8.505t.357-8.433q0-.793.072-1.514t.144-1.514q.071-1.657.144-3.243t.145-3.244a47.173,47.173,0,0,1,4.865-.036,45.577,45.577,0,0,1,4.793.469q.36.072.613-.577C387.793,411.977,387.781,411.714,387.589,411.617Z" transform="translate(-286.743 -380.06)" fill="#fff"/>
      <line id="Line_1" data-name="Line 1" y1="0.002" x2="0.149" transform="translate(79.55 33.073)" fill="#47494b"/>
      <path id="Path_9" data-name="Path 9" d="M384.26,418.842" transform="translate(-305.476 -385.739)" fill="#47494b"/>
    </g>
    <g id="Group_4" data-name="Group 4" transform="translate(200.45 316.999)">
      <path id="Path_10" data-name="Path 10" d="M386.017,368.755l1.137,13.467h15l-1.795-12.19Z" transform="translate(-374.353 -355.166)" fill="#47494b" stroke="#313133" stroke-miterlimit="10" stroke-width="1"/>
      <path id="Path_11" data-name="Path 11" d="M365.865,392.9s-1.835,5.9,2.2,5.9c1.847,0,2.849.057,5.459,0,.763-.017,1.4-.01,1.845,0l.711-5.9Z" transform="translate(-360.228 -371.751)" fill="#cb683b" stroke="#313133" stroke-miterlimit="10" stroke-width="1"/>
      <g id="Group_3" data-name="Group 3" transform="translate(2.09 2.251)">
        <line id="Line_2" data-name="Line 2" y1="2.81" x2="2.81" transform="translate(11.644 11.338)" fill="#cb683b" stroke="#313133" stroke-miterlimit="10" stroke-width="1"/>
        <path id="Path_12" data-name="Path 12" d="M377.6,335.874c-5.987-5.987-11.428-3-16.629,2.2s-8.191,10.642-2.2,16.629" transform="translate(-355.458 -332.564)" fill="#cb683b" stroke="#313133" stroke-miterlimit="10" stroke-width="1"/>
        <line id="Line_3" data-name="Line 3" x1="2.81" y2="2.81" transform="translate(11.644 11.338)" fill="#cb683b" stroke="#313133" stroke-miterlimit="10" stroke-width="1"/>
      </g>
      <path id="Path_13" data-name="Path 13" d="M380.74,366.765l9.818-9.818.135,9.953Z" transform="translate(-370.729 -347.057)" fill="#fda954" stroke="#313133" stroke-miterlimit="10" stroke-width="1"/>
      <circle id="Ellipse_1" data-name="Ellipse 1" cx="6.904" cy="6.904" r="6.904" transform="translate(2.377 12.129)" fill="#fff" stroke="#313133" stroke-miterlimit="10" stroke-width="1"/>
      <circle id="Ellipse_2" data-name="Ellipse 2" cx="6.904" cy="6.904" r="6.904" transform="translate(12.195 2.311)" fill="#fff" stroke="#313133" stroke-miterlimit="10" stroke-width="1"/>
      <path id="Path_14" data-name="Path 14" d="M351.721,369.961s-2.348,2.865-2.864,2.865,2.007,1.519,2.007,1.519Z" transform="translate(-348.786 -355.995)" fill="#47494b" stroke="#313133" stroke-miterlimit="10" stroke-width="1"/>
      <path id="Path_15" data-name="Path 15" d="M393.367,328.314s2.865-2.348,2.865-2.865,1.519,2.007,1.519,2.007Z" transform="translate(-379.401 -325.38)" fill="#47494b" stroke="#313133" stroke-miterlimit="10" stroke-width="1"/>
      <path id="Path_16" data-name="Path 16" d="M420.165,360.328s10.689,16.107,1.795,16.107c-4.033,0-4.342-1.119-4.342-1.119l-2.755-10.006Z" transform="translate(-394.162 -349.379)" fill="#cb683b" stroke="#313133" stroke-miterlimit="10" stroke-width="1"/>
      <path id="Path_17" data-name="Path 17" d="M380.419,380.245l-2.12,2.12-2.121,2.121,2.121-2.121Z" transform="translate(-367.597 -363.057)" fill="#1a1818" stroke="#313133" stroke-miterlimit="10" stroke-width="1"/>
      <path id="Path_18" data-name="Path 18" d="M411.759,348.9l-2.121,2.121-2.12,2.121,2.12-2.121Z" transform="translate(-389.119 -341.535)" fill="#1a1818" stroke="#313133" stroke-miterlimit="10" stroke-width="1"/>
    </g>
    <path id="Path_19" data-name="Path 19" d="M390.421,410.454a2.036,2.036,0,0,0-.1,2.987.987.987,0,0,0,.467.139.491.491,0,0,0,.514-.553c-.192-1.529.1-2.1.43-2.324.19-.128.2-.224.193-.3C391.906,410.235,391.088,410.013,390.421,410.454Z" transform="translate(-176.443 -66.626)" fill="#fda954" stroke="#313133" stroke-miterlimit="10" stroke-width="1"/>
    <path id="Path_20" data-name="Path 20" d="M422.548,409.944a2.036,2.036,0,0,0-.1,2.987.987.987,0,0,0,.467.139.491.491,0,0,0,.514-.553c-.192-1.529.1-2.1.429-2.324.19-.128.2-.224.193-.3C424.033,409.726,423.215,409.5,422.548,409.944Z" transform="translate(-198.505 -66.276)" fill="#fda954" stroke="#313133" stroke-miterlimit="10" stroke-width="1"/>
  </g>
</svg>
