<svg xmlns="http://www.w3.org/2000/svg" width="78.531" height="56.426" viewBox="0 0 78.531 56.426">
  <g id="Group_6" data-name="Group 6" transform="translate(-148 -66.175)">
    <g id="Group_5" data-name="Group 5" transform="translate(15.221 -247)">
      <g id="Group_1" data-name="Group 1" transform="translate(159.535 327.034)">
        <path id="Path_1" data-name="Path 1" d="M248.7,372.21c.049.025.052.092.009.2s-.1.159-.156.147a11.659,11.659,0,0,0-1.222-.119,12.006,12.006,0,0,0-1.24.009q-.019.423-.037.826t-.037.827c-.012.135-.024.263-.037.386a3.822,3.822,0,0,0-.018.385q-.05,1.084-.091,2.149t-.074,2.167q-.019.533-.009,1.056t.009,1.056a.344.344,0,0,1-.294.1.707.707,0,0,1-.294-.138q-.037-2.222.064-4.4t.229-4.381q-.11.019-.229.027c-.08.006-.156.015-.23.028a1.388,1.388,0,0,1-.322,0,2.6,2.6,0,0,0-.3-.018q-.331.037-.67.046t-.67.046a.44.44,0,0,1-.257-.037.416.416,0,0,1-.165-.138.182.182,0,0,1-.027-.165c.018-.055.077-.095.174-.12a1.908,1.908,0,0,1,.276-.073q.11-.018.22-.027t.229-.009h.285q.441-.037.873-.046t.854-.028q.037-.385.046-.781t.046-.781a.752.752,0,0,1,.452.037q.1.074.1.4l-.055,1.1h.312q.4-.018.808,0t.808.055a1.613,1.613,0,0,1,.331.074A2.431,2.431,0,0,1,248.7,372.21Z" transform="translate(-242.62 -370.318)" fill="#cb683b"/>
        <path id="Path_2" data-name="Path 2" d="M272.631,381.367c-.282.049-.459.043-.533-.018s-.11-.215-.11-.459v-2.5q0-1.23-.037-2.48a2.559,2.559,0,0,0-.2-.973q-.2-.422-.5-.441a.7.7,0,0,0-.573.349.794.794,0,0,0-.12.211c-.031.08-.058.156-.083.229q-.185.423-.361.845t-.342.845a8.316,8.316,0,0,0-.481,2.021,19.311,19.311,0,0,0-.111,2.075,3.474,3.474,0,0,1-.028.441c-.018.147-.034.294-.046.441-.249.049-.41.046-.481-.009s-.107-.193-.107-.413q-.018-.9-.037-1.791t-.018-1.773a8.323,8.323,0,0,1,.009-.873q.028-.431.046-.854.037-1.322.046-2.654t.046-2.654c.012-.134.028-.276.046-.422s.039-.294.064-.441a1.1,1.1,0,0,1,.444.239.692.692,0,0,1,.071.441q-.018.9-.046,1.8t-.046,1.8q-.018.533-.009,1.075t.009,1.074a.138.138,0,0,0,.055.018.148.148,0,0,1,.055.018,3.581,3.581,0,0,0,.157-.358q.065-.174.139-.358.111-.257.2-.514a3.222,3.222,0,0,1,.241-.514q.407-.735.842-.753a1.888,1.888,0,0,1,1.027.349,1.628,1.628,0,0,1,.5.514,1.37,1.37,0,0,1,.193.735q.037.7.055,1.387t.019,1.387q.018.643.018,1.277v1.469A1.323,1.323,0,0,1,272.631,381.367Z" transform="translate(-262.161 -370.071)" fill="#cb683b"/>
        <path id="Path_3" data-name="Path 3" d="M289.976,389.238q.092-.5.193-1.166t.23-1.387a1.343,1.343,0,0,1,.257-.615,3.116,3.116,0,0,1,.459-.487.613.613,0,0,1,.386-.128,1.049,1.049,0,0,1,.624.266,1.165,1.165,0,0,1,.386.56,1.966,1.966,0,0,1-.367,1.855,4.544,4.544,0,0,1-.56.661,1.92,1.92,0,0,1-.744.441.231.231,0,0,0-.165.129.946.946,0,0,0-.055.2,4.587,4.587,0,0,0,.037,1.01,2.768,2.768,0,0,0,.33.955.95.95,0,0,0,.294.33.869.869,0,0,0,.386.156.647.647,0,0,0,.4-.074.876.876,0,0,0,.34-.358q.11-.2.211-.413t.193-.413a1.664,1.664,0,0,1,.083-.147c.03-.049.064-.1.1-.147a.653.653,0,0,1,.11-.083c.049-.03.085-.039.11-.027a.659.659,0,0,1,.119.11.212.212,0,0,1,.064.128q-.037.239-.083.478a1.506,1.506,0,0,1-.156.441,2.951,2.951,0,0,1-.459.671.87.87,0,0,1-.753.266,2.641,2.641,0,0,1-.946-.23,1.453,1.453,0,0,1-.67-.707,3.18,3.18,0,0,1-.276-1.01Q289.994,389.973,289.976,389.238Zm.771-.551a1.524,1.524,0,0,1,.193-.083.351.351,0,0,0,.138-.083q.165-.2.33-.386a4.728,4.728,0,0,0,.313-.386,1.423,1.423,0,0,0,.3-.707,1.735,1.735,0,0,0-.083-.762.756.756,0,0,0-.11-.184.292.292,0,0,0-.147-.11.219.219,0,0,0-.175.055.568.568,0,0,0-.156.165,2.841,2.841,0,0,0-.459,1.175Q290.8,388.007,290.747,388.687Z" transform="translate(-278.441 -381.707)" fill="#cb683b"/>
      </g>
      <g id="Group_2" data-name="Group 2" transform="translate(132.779 313.175)">
        <path id="Path_4" data-name="Path 4" d="M155.545,321.6q-.281-1.2-.785-2.718a8.824,8.824,0,0,0-1.457-2.634,8.676,8.676,0,0,0-2.354-2.1,6.729,6.729,0,0,0-2.914-.953,5.532,5.532,0,0,0-3.194.757,15.491,15.491,0,0,0-2.214,1.569,6.381,6.381,0,0,0-1.6,2.129q-1.29,2.69-2.438,5.464t-2.1,5.632q-.281.954-.588,1.906a14.215,14.215,0,0,0-.476,1.905q-.5,2.522-.9,5.044t-.841,5.044a49.421,49.421,0,0,0-.9,8.1,32.955,32.955,0,0,0,.785,8.1,14.326,14.326,0,0,0,.813,2.55q.532,1.261.981,2.55a6.422,6.422,0,0,0,.42.9q.252.449.476.953a6.363,6.363,0,0,0,2.1,2.718,4.736,4.736,0,0,0,3.11,1.093,9.691,9.691,0,0,0,3.587-.756,6.3,6.3,0,0,0,2.746-2.382,26.9,26.9,0,0,0,1.99-3.39,17.014,17.014,0,0,0,1.317-3.727q.559-2.129.981-4.343t.868-4.4q.616-3.138,1.177-6.193t1.009-6.248q.337-2.186.476-4.4t.364-4.455q.111-1.681.112-2.942a20.048,20.048,0,0,0-.14-2.41A22.486,22.486,0,0,0,155.545,321.6Zm-1.457,9.779q-.113,2.41-.392,4.819-.281,2.467-.756,4.848t-.925,4.848q-.56,3.026-1.121,6.024t-1.233,6.025a20.3,20.3,0,0,1-1.289,3.895,27.037,27.037,0,0,1-1.961,3.615,5.944,5.944,0,0,1-4.6,2.8,3.948,3.948,0,0,1-2.158-.392,3,3,0,0,1-1.485-1.513q-.786-1.681-1.485-3.362t-1.261-3.419a17.079,17.079,0,0,1-.729-4.091q-.113-2.073-.112-4.2a45.532,45.532,0,0,1,.869-8.294q.812-4.09,1.429-8.238a32.859,32.859,0,0,1,2.073-7.4q1.457-3.53,2.97-7.061a5.476,5.476,0,0,1,.28-.588,5.478,5.478,0,0,0,.28-.589q.448-.784.9-1.485a2.627,2.627,0,0,1,1.4-1.037,3.009,3.009,0,0,0,.953-.533,8.982,8.982,0,0,1,.9-.644,3.593,3.593,0,0,1,1.905-.729,2.733,2.733,0,0,1,2.129.785,6.588,6.588,0,0,1,1.233,1.373,8.679,8.679,0,0,1,.841,1.6,12.057,12.057,0,0,1,.673,1.849q.28,1.009.5,2.1t.336,2.186a19.7,19.7,0,0,1,.112,1.989Q154.2,328.97,154.088,331.379Z" transform="translate(-132.779 -313.175)" fill="#47494b"/>
        <path id="Path_5" data-name="Path 5" d="M255.463,427.94a4.048,4.048,0,0,1-.112.448.514.514,0,0,0,0,.336,26.071,26.071,0,0,1-.28,5.66q-.449,2.8-.9,5.66a27.654,27.654,0,0,1-.813,3.727,13.744,13.744,0,0,1-1.6,3.5,7,7,0,0,1-.644.869,1.64,1.64,0,0,1-.981.532,10.233,10.233,0,0,1-.784-1.4,5.393,5.393,0,0,1-.448-1.513q-.224-1.793-.392-3.587t-.224-3.587q-.113-1.9-.084-3.783t.084-3.839q0-1.009-.308-1.261a2.53,2.53,0,0,0-1.541-.14,18.449,18.449,0,0,0-.168,2.494v2.522q0,1.261-.112,2.494a11.619,11.619,0,0,1-.5,2.466q-.337,1.233-.617,2.494t-.588,2.522a26.01,26.01,0,0,1-.757,2.522,14.4,14.4,0,0,1-1.177,2.494q-.168-.448-.28-.729a3.063,3.063,0,0,1-.168-.561q-.168-.841-.308-1.681t-.252-1.681q-.449-3.7-.869-7.425a52.545,52.545,0,0,1-.308-7.482q0-1.009-.308-1.233a2.616,2.616,0,0,0-1.485-.112c-.037.188-.066.374-.084.56a5.474,5.474,0,0,0-.028.56q.112,4.035.42,7.986t.813,7.986q.112.84.28,1.653a11.858,11.858,0,0,0,.448,1.6,3.5,3.5,0,0,0,1.457,1.737,1.613,1.613,0,0,0,1.429.28,2.084,2.084,0,0,0,1.093-1.009,21.572,21.572,0,0,0,1.093-2.3,15.242,15.242,0,0,0,.757-2.466,1.539,1.539,0,0,1,.2-.448c.093-.149.2-.336.308-.56q.112.5.2.925t.2.813q.223.729.448,1.429a7.492,7.492,0,0,0,.56,1.317,2.609,2.609,0,0,0,1.065,1.093,2.54,2.54,0,0,0,1.429.308,3.271,3.271,0,0,0,1.457-.476,3.708,3.708,0,0,0,1.2-1.205,9.615,9.615,0,0,0,1.009-1.877q.391-.98.785-1.933a27.759,27.759,0,0,0,1.2-4.988q.364-2.521.644-5.1.168-1.457.224-2.942t.168-3a9.169,9.169,0,0,0-.953-.364C256.06,428.156,255.761,428.052,255.463,427.94Z" transform="translate(-212.692 -399.985)" fill="#47494b"/>
        <path id="Path_6" data-name="Path 6" d="M326.456,399.389q-.617-.055-.728.308a4.825,4.825,0,0,0-.168.757v.28q-.225,4.148-.42,8.238t-.42,8.182q-.113,1.962-.224,3.895t-.224,3.895q-.113,1.626-.2,3.222a12.573,12.573,0,0,0,.252,3.222,2.1,2.1,0,0,0,.5,1.149,2.574,2.574,0,0,0,1.4.084,4.746,4.746,0,0,0,.112-.841q-.056-.786-.14-1.541a13.927,13.927,0,0,1-.084-1.541q.055-1.849.112-3.727t.168-3.727q.111-3.138.252-6.22t.308-6.221a7.169,7.169,0,0,1,.056-.9q.055-.448.112-.9.111-1.625.224-3.194t.224-3.195A1.072,1.072,0,0,0,326.456,399.389Z" transform="translate(-277.465 -378.383)" fill="#47494b"/>
        <path id="Path_7" data-name="Path 7" d="M361.71,452.106q-.113-.055-.336.084a1.921,1.921,0,0,0-.336.252c-.112.149-.216.3-.308.448s-.178.3-.252.448q-.281.617-.589,1.261t-.644,1.261a2.672,2.672,0,0,1-1.037,1.092,1.966,1.966,0,0,1-1.2.224,2.653,2.653,0,0,1-1.177-.476,2.9,2.9,0,0,1-.9-1.008,8.433,8.433,0,0,1-1.009-2.914,14.053,14.053,0,0,1-.112-3.082,2.909,2.909,0,0,1,.168-.617.7.7,0,0,1,.5-.392,5.866,5.866,0,0,0,2.269-1.345,13.9,13.9,0,0,0,1.709-2.017,6,6,0,0,0,1.121-5.66,3.555,3.555,0,0,0-1.177-1.709,3.2,3.2,0,0,0-1.905-.813,1.864,1.864,0,0,0-1.177.392,9.552,9.552,0,0,0-1.4,1.485,4.115,4.115,0,0,0-.785,1.877q-.393,2.186-.7,4.231t-.589,3.559q.056,2.242.224,3.867a9.688,9.688,0,0,0,.84,3.082,4.441,4.441,0,0,0,2.046,2.158,8.088,8.088,0,0,0,2.886.7,2.652,2.652,0,0,0,2.3-.813,9.022,9.022,0,0,0,1.4-2.046,4.6,4.6,0,0,0,.476-1.345q.14-.728.252-1.457a.644.644,0,0,0-.2-.392A2,2,0,0,0,361.71,452.106Zm-7.061-9.079a8.677,8.677,0,0,1,1.4-3.587,1.733,1.733,0,0,1,.476-.5.665.665,0,0,1,.533-.168.894.894,0,0,1,.448.336,2.3,2.3,0,0,1,.336.56,5.284,5.284,0,0,1,.252,2.326,4.338,4.338,0,0,1-.925,2.157,14.409,14.409,0,0,1-.953,1.177q-.5.561-1.009,1.177a1.053,1.053,0,0,1-.42.252,4.617,4.617,0,0,0-.589.252Q354.368,444.934,354.648,443.027Z" transform="translate(-298.484 -406.946)" fill="#47494b"/>
        <path id="Path_8" data-name="Path 8" d="M380.78,411.384a7.4,7.4,0,0,0-.953-.392,4.909,4.909,0,0,0-1.008-.224q-1.233-.112-2.466-.168t-2.466,0h-.953v-.016h-.027l-.05,0c-.03,0-.059,0-.09,0H372.6a1.243,1.243,0,0,1-.125.016c-.157,0-.314,0-.47-.005-.287.025-.574.046-.861.057v0q-1.29.056-2.606.084t-2.662.14H365c-.2,0-.386.008-.57.02-.143,0-6.567.068-7.136.212l-.317.406.007.186.017.456.174.2.171.139.252.095.3.134,1.1-.04,2.26-.023,1.593-.058.21-.005,2.619-.125q1.037-.027,2.046-.14a7.962,7.962,0,0,1,.925.056,4.293,4.293,0,0,0,.981,0c.224-.037.457-.065.7-.084s.476-.047.7-.084q-.393,6.725-.7,13.366t-.2,13.422a2.169,2.169,0,0,0,.9.42,1.051,1.051,0,0,0,.9-.308q0-1.625-.028-3.223t.028-3.222q.1-3.362.227-6.613t.278-6.557q0-.616.056-1.177t.112-1.177q.055-1.288.112-2.521t.112-2.522a36.676,36.676,0,0,1,3.783-.028,35.436,35.436,0,0,1,3.726.364q.28.056.477-.448C380.938,411.665,380.929,411.46,380.78,411.384Z" transform="translate(-302.369 -386.848)" fill="#47494b"/>
        <line id="Line_1" data-name="Line 1" y1="0.002" x2="0.116" transform="translate(61.852 25.715)" fill="#47494b"/>
        <path id="Path_9" data-name="Path 9" d="M384.26,418.842" transform="translate(-323.003 -393.103)" fill="#47494b"/>
      </g>
      <g id="Group_4" data-name="Group 4" transform="translate(185.396 316.148)">
        <path id="Path_10" data-name="Path 10" d="M386.017,368.755l.884,10.471h11.66l-1.4-9.478Z" transform="translate(-376.948 -358.189)" fill="#47494b" stroke="#313133" stroke-miterlimit="10" stroke-width="1"/>
        <path id="Path_11" data-name="Path 11" d="M365.772,392.9s-1.427,4.588,1.709,4.588c1.436,0,2.215.044,4.245,0,.593-.013,1.087-.008,1.434,0l.553-4.588Z" transform="translate(-361.39 -376.457)" fill="#cb683b" stroke="#313133" stroke-miterlimit="10" stroke-width="1"/>
        <g id="Group_3" data-name="Group 3" transform="translate(1.625 1.75)">
          <line id="Line_2" data-name="Line 2" y1="2.185" x2="2.185" transform="translate(9.053 8.815)" fill="#cb683b" stroke="#313133" stroke-miterlimit="10" stroke-width="1"/>
          <path id="Path_12" data-name="Path 12" d="M372.674,335.138c-4.655-4.655-8.886-2.33-12.929,1.714s-6.369,8.274-1.714,12.929" transform="translate(-355.458 -332.564)" fill="#cb683b" stroke="#313133" stroke-miterlimit="10" stroke-width="1"/>
          <line id="Line_3" data-name="Line 3" x1="2.185" y2="2.185" transform="translate(9.053 8.815)" fill="#cb683b" stroke="#313133" stroke-miterlimit="10" stroke-width="1"/>
        </g>
        <path id="Path_13" data-name="Path 13" d="M380.74,364.581l7.634-7.634.105,7.739Z" transform="translate(-372.956 -349.257)" fill="#fda954" stroke="#313133" stroke-miterlimit="10" stroke-width="1"/>
        <circle id="Ellipse_1" data-name="Ellipse 1" cx="5.368" cy="5.368" r="5.368" transform="translate(1.848 9.431)" fill="#fff" stroke="#313133" stroke-miterlimit="10" stroke-width="1"/>
        <circle id="Ellipse_2" data-name="Ellipse 2" cx="5.368" cy="5.368" r="5.368" transform="translate(9.482 1.797)" fill="#fff" stroke="#313133" stroke-miterlimit="10" stroke-width="1"/>
        <path id="Path_14" data-name="Path 14" d="M351.068,369.961s-1.826,2.227-2.227,2.227,1.561,1.181,1.561,1.181Z" transform="translate(-348.786 -359.102)" fill="#47494b" stroke="#313133" stroke-miterlimit="10" stroke-width="1"/>
        <path id="Path_15" data-name="Path 15" d="M393.367,327.661s2.227-1.826,2.227-2.227,1.181,1.561,1.181,1.561Z" transform="translate(-382.508 -325.38)" fill="#47494b" stroke="#313133" stroke-miterlimit="10" stroke-width="1"/>
        <path id="Path_16" data-name="Path 16" d="M418.985,360.328s8.311,12.523,1.4,12.523c-3.136,0-3.376-.87-3.376-.87l-2.142-7.78Z" transform="translate(-398.768 -351.815)" fill="#cb683b" stroke="#313133" stroke-miterlimit="10" stroke-width="1"/>
        <path id="Path_17" data-name="Path 17" d="M379.475,380.245l-1.649,1.649-1.649,1.649,1.649-1.649Z" transform="translate(-369.506 -366.881)" fill="#1a1818" stroke="#313133" stroke-miterlimit="10" stroke-width="1"/>
        <path id="Path_18" data-name="Path 18" d="M410.815,348.9l-1.649,1.649-1.649,1.649,1.649-1.649Z" transform="translate(-393.212 -343.174)" fill="#1a1818" stroke="#313133" stroke-miterlimit="10" stroke-width="1"/>
      </g>
      <path id="Path_19" data-name="Path 19" d="M390.264,410.4a1.583,1.583,0,0,0-.079,2.322.768.768,0,0,0,.363.108.382.382,0,0,0,.4-.43c-.149-1.189.076-1.633.334-1.807.147-.1.157-.174.15-.236C391.418,410.226,390.782,410.053,390.264,410.4Z" transform="translate(-194.35 -73.387)" fill="#fda954" stroke="#313133" stroke-miterlimit="10" stroke-width="1"/>
      <path id="Path_20" data-name="Path 20" d="M422.391,409.887a1.583,1.583,0,0,0-.079,2.322.767.767,0,0,0,.363.108.382.382,0,0,0,.4-.43c-.149-1.189.076-1.633.334-1.807.147-.1.157-.174.15-.236C423.546,409.717,422.91,409.544,422.391,409.887Z" transform="translate(-218.652 -73.002)" fill="#fda954" stroke="#313133" stroke-miterlimit="10" stroke-width="1"/>
    </g>
  </g>
</svg>
